HIERARCHY
ROOT root
{
	OFFSET 0.000000 0.000000 0.000000
	CHANNELS 6 Xposition Yposition Zposition Zrotation Yrotation Xrotation
	JOINT lhip
	{
		OFFSET 0.058581 -0.082280 -0.017664
		CHANNELS 3 Zrotation Yrotation Xrotation
		JOINT lknee
		{
			OFFSET 0.043451 -0.386469 0.008037
			CHANNELS 3 Zrotation Yrotation Xrotation
			JOINT lankle
			{
				OFFSET -0.014790 -0.426874 -0.037428
				CHANNELS 3 Zrotation Yrotation Xrotation
				JOINT ltoe
				{
					OFFSET 0.041054 -0.060286 0.122042
					CHANNELS 3 Zrotation Yrotation Xrotation
					End Site
					{
						OFFSET 0.000000 0.000000 0.000000
					}
				}
			}
		}
	}
	JOINT rhip
	{
		OFFSET -0.060310 -0.090513 -0.013543
		CHANNELS 3 Zrotation Yrotation Xrotation
		JOINT rknee
		{
			OFFSET -0.043257 -0.383688 -0.004843
			CHANNELS 3 Zrotation Yrotation Xrotation
			JOINT rankle
			{
				OFFSET 0.019056 -0.420046 -0.034562
				CHANNELS 3 Zrotation Yrotation Xrotation
				JOINT rtoe
				{
					OFFSET -0.034840 -0.062106 0.130323
					CHANNELS 3 Zrotation Yrotation Xrotation
					End Site
					{
						OFFSET 0.000000 0.000000 0.000000
					}
				}
			}
		}
	}
	JOINT lowerback
	{
		OFFSET 0.004439 0.124404 -0.038385
		CHANNELS 3 Zrotation Yrotation Xrotation
		JOINT upperback
		{
			OFFSET 0.004488 0.137956 0.026820
			CHANNELS 3 Zrotation Yrotation Xrotation
			JOINT chest
			{
				OFFSET -0.002265 0.056032 0.002855
				CHANNELS 3 Zrotation Yrotation Xrotation
				JOINT lowerneck
				{
					OFFSET -0.013390 0.211636 -0.033468
					CHANNELS 3 Zrotation Yrotation Xrotation
					JOINT upperneck
					{
						OFFSET 0.010113 0.088937 0.050410
						CHANNELS 3 Zrotation Yrotation Xrotation
						End Site
						{
							OFFSET 0.000000 0.000000 0.000000
						}
					}
				}
				JOINT lclavicle
				{
					OFFSET 0.071702 0.114000 -0.018898
					CHANNELS 3 Zrotation Yrotation Xrotation
					JOINT lshoulder
					{
						OFFSET 0.122921 0.045205 -0.019046
						CHANNELS 3 Zrotation Yrotation Xrotation
						JOINT lelbow
						{
							OFFSET 0.255332 -0.015649 -0.022946
							CHANNELS 3 Zrotation Yrotation Xrotation
							JOINT lwrist
							{
								OFFSET 0.265709 0.012698 -0.007375
								CHANNELS 3 Zrotation Yrotation Xrotation
								End Site
								{
									OFFSET 0.000000 0.000000 0.000000
								}
							}
						}
					}
				}
				JOINT rclavicle
				{
					OFFSET -0.082954 0.112472 -0.023707
					CHANNELS 3 Zrotation Yrotation Xrotation
					JOINT rshoulder
					{
						OFFSET -0.113228 0.046853 -0.008472
						CHANNELS 3 Zrotation Yrotation Xrotation
						JOINT relbow
						{
							OFFSET -0.260127 -0.014369 -0.031269
							CHANNELS 3 Zrotation Yrotation Xrotation
							JOINT rwrist
							{
								OFFSET -0.269108 0.006794 -0.006027
								CHANNELS 3 Zrotation Yrotation Xrotation
								End Site
								{
									OFFSET 0.000000 0.000000 0.000000
								}
							}
						}
					}
				}
			}
		}
	}
}
MOTION
Frames: 17
Frame Time: 0.033333
-0.101686 0.744595 1.019981 94.808176 1.014748 82.466976 1.444914 -3.016893 -4.593035 -5.196275 1.386603 63.066116 -1.412223 9.756629 -6.363500 0.000000 -0.000000 0.000000 3.585742 4.469926 -10.017949 3.314484 -4.045843 25.746384 -1.858587 -5.219294 -15.951386 0.000000 -0.000000 0.000000 1.576415 -0.836897 12.918035 4.020581 0.037429 3.450378 0.070070 -0.461588 -1.046781 1.896553 2.509026 -4.678944 -2.072176 -3.471922 6.564263 -31.257599 6.267302 1.413928 -60.411301 -5.739084 11.071463 12.110742 -41.852828 -2.419778 -2.670409 -22.577906 -26.524016 34.462502 -0.557796 3.425281 56.396623 1.426991 12.580746 -23.562340 22.007567 -12.848750 -5.203283 6.095741 -8.619549 
-0.044680 0.747209 1.030663 92.506527 -0.232954 82.124172 1.383946 -3.256864 -9.982327 -3.860836 5.436629 58.266245 -0.458524 9.636172 -9.967639 0.000000 -0.000000 0.000000 3.065866 3.037753 -2.804948 3.620797 -0.735034 20.848897 -1.281536 -3.799924 -17.447410 0.000000 -0.000000 0.000000 0.926367 2.171910 12.974895 3.335870 -0.356187 3.301734 -0.159505 0.089435 -0.944686 2.389986 2.577248 -3.292150 -2.184048 -3.801956 6.451437 -30.646139 6.642983 2.609421 -61.105026 0.122028 9.852264 12.280045 -37.134300 0.388855 -1.025119 -21.998784 -25.800271 33.536324 1.376717 3.283688 56.189503 6.039875 13.070935 -23.359814 26.698499 -11.967111 -8.832642 7.652268 -10.378492 
0.011428 0.749430 1.035423 90.328409 -1.059742 82.531414 1.834718 -3.238680 -14.727528 -3.654475 8.219940 48.877204 -0.812576 9.960534 -13.029081 0.000000 -0.000000 0.000000 1.527201 1.068907 3.593495 4.351489 0.549246 15.534084 -0.540541 -0.573822 -18.435260 0.000000 -0.000000 0.000000 0.767240 4.712267 12.875560 2.563387 -0.740960 1.968367 -0.466972 0.730000 -0.582558 3.321168 3.228567 -2.123277 -2.644482 -4.943441 6.500079 -30.478758 8.018259 3.300051 -61.259964 5.611029 7.363838 13.336054 -32.591811 3.588257 -4.571428 -22.342152 -23.996265 32.701703 1.692346 3.245365 55.189667 11.512599 12.072604 -22.395348 32.851332 -8.787959 -9.679322 7.232046 -13.751032 
0.069724 0.752338 1.033739 87.724040 -2.372318 81.887873 1.967342 -3.670596 -15.870094 -4.937637 10.528492 34.716237 0.585509 12.172482 -13.617305 0.000000 -0.000000 0.000000 -1.876709 -0.602018 10.778168 6.542387 3.191813 11.219210 -0.285576 1.241692 -18.672074 0.000000 -0.000000 0.000000 0.493456 7.161977 13.630486 1.536925 -0.385612 1.068001 -1.086491 1.483864 0.742329 4.147674 2.773535 -3.680950 -3.033515 -5.265104 7.270887 -30.648698 10.006876 3.119116 -58.877965 10.812021 9.819855 14.258430 -30.845620 4.780089 -1.598359 -19.793113 -22.632639 32.254430 1.684601 1.058180 54.170324 16.580543 13.704346 -22.738352 37.698393 -11.695034 -6.966770 9.111567 -13.464755 
0.128352 0.754784 1.025423 85.368187 -2.564695 81.773324 3.169954 -2.944931 -16.637815 -5.383346 11.931255 19.046403 -0.274973 11.655575 -13.960054 0.000000 -0.000000 0.000000 -4.207690 -1.228924 16.897762 7.887430 5.774922 8.181675 0.699143 2.873788 -19.158181 0.000000 -0.000000 0.000000 0.780225 8.275058 13.502832 0.779809 0.047284 1.548394 -1.403167 2.467706 0.573781 5.193960 3.427508 -4.300483 -4.056147 -6.309293 7.952704 -30.726042 12.735009 2.907681 -57.338260 15.764189 8.416924 14.961493 -29.051932 5.575947 -3.077408 -20.163386 -20.173025 31.101301 2.886355 0.465492 52.826008 21.273159 13.980675 -23.795822 42.366780 -14.371797 -9.361599 9.785842 -14.001330 
0.186155 0.757323 1.012285 83.444870 -1.876847 82.373796 4.433752 -0.999656 -18.171116 -5.151050 9.151936 5.540342 -0.969897 9.927998 -14.167761 0.000000 -0.000000 0.000000 -5.285292 -1.473898 20.344875 8.650891 8.023255 8.591471 2.157660 4.235835 -20.267960 0.000000 -0.000000 0.000000 1.250722 8.066401 12.893877 0.274782 0.939792 1.593088 -1.423359 3.662363 0.491400 5.719538 3.715983 -4.971088 -4.878798 -6.663002 8.155680 -30.879321 15.884205 2.180375 -55.667211 20.257405 6.761739 15.457506 -28.347078 3.899687 -2.116763 -20.162178 -18.933779 30.351043 4.215945 -0.172347 49.771139 25.488152 13.394168 -23.363462 46.497161 -15.985011 -10.356544 11.127328 -13.732362 
0.244106 0.760580 0.998348 81.873493 -0.748775 83.413750 5.688374 2.396107 -21.066592 -5.562577 6.312217 -1.548954 -1.577498 8.314639 -13.497927 0.000000 -0.000000 0.000000 -5.673122 -1.875896 22.148020 8.924463 10.180865 11.010441 2.788863 5.760229 -20.777545 0.000000 -0.000000 0.000000 1.609104 7.302280 11.599558 0.220871 1.796910 1.912859 -1.284267 5.087905 0.265387 6.043364 3.665577 -5.313866 -5.185338 -6.662009 7.773670 -30.528377 18.213619 1.838765 -54.997795 24.098969 5.141525 15.853404 -27.377710 3.025276 0.631449 -19.829074 -19.858428 29.315074 5.285402 -0.171424 46.208632 28.953704 11.794936 -22.320421 50.353582 -14.606004 -11.195049 12.381795 -14.445353 
0.305131 0.764609 0.987901 80.984981 -0.863908 83.450463 6.235485 1.470280 -22.132692 -5.988769 6.162697 -1.802618 -2.187926 7.906596 -13.810597 0.000000 -0.000000 0.000000 -6.616478 -0.733746 24.446791 8.868286 12.054356 14.155083 3.769168 6.249716 -19.462245 0.000000 -0.000000 0.000000 0.828771 8.028413 11.557527 0.302942 1.949057 1.757828 -1.193942 5.475469 0.262810 6.128265 3.222255 -5.740885 -4.988467 -6.705322 7.237682 -29.771253 19.373445 1.815997 -54.720515 26.256329 4.050905 16.237502 -26.066217 2.535062 3.100839 -19.602141 -20.153361 28.384323 5.555175 -0.944093 44.684967 30.214899 11.468378 -24.107759 53.206832 -15.330080 -12.728408 13.087345 -13.057955 
0.370957 0.769030 0.981689 81.001835 -1.712076 83.510820 5.711766 -1.869662 -23.450426 -6.447627 8.645132 6.115051 -1.260820 9.636319 -12.600784 0.000000 -0.000000 0.000000 -6.951616 0.809734 25.232754 8.537125 13.449320 20.068835 5.393168 5.711876 -15.983896 0.000000 -0.000000 0.000000 -0.678862 9.917903 10.736585 0.589030 1.350883 1.840083 -1.455098 4.726842 0.351378 6.714054 2.499645 -6.003018 -4.058587 -6.517785 6.881608 -29.762891 19.370026 2.330833 -53.367237 27.717083 4.540256 15.845597 -26.035527 1.980134 4.613750 -18.842046 -21.135757 29.073898 4.932307 -1.176196 43.744298 28.757433 12.380889 -27.722098 56.109076 -18.778662 -14.175391 13.205024 -12.935373 
0.439000 0.774082 0.979582 81.613236 -2.705635 84.546098 4.376038 -3.750708 -26.115831 -6.041433 9.620131 14.493452 0.193660 10.021056 -5.261755 0.000000 -0.000000 0.000000 -6.483191 2.115493 21.778617 7.622961 12.019135 30.738728 8.294365 5.602462 -3.560408 0.000000 -0.000000 0.000000 -2.992839 10.164709 8.512448 1.050003 1.293628 1.981223 -1.898848 4.101606 0.615966 7.014383 1.624142 -6.917204 -2.484882 -5.915177 7.004956 -30.115284 19.586703 2.214136 -51.768287 27.415130 5.583840 15.358792 -26.279106 1.628842 3.670501 -18.936657 -20.812416 30.444543 2.526666 -1.600134 44.762143 26.424019 14.543061 -30.359577 57.938821 -21.035781 -12.002261 13.214217 -13.900764 
0.502565 0.779724 0.983978 82.963630 -4.394590 83.924125 1.870727 -6.661887 -26.265601 -6.780223 9.002822 23.466377 5.640333 11.219911 -8.186161 0.000000 -0.000000 0.000000 -6.818875 2.984177 16.754973 6.426375 8.594583 43.767401 12.200044 2.708996 12.357578 0.000000 -0.000000 0.000000 -5.283582 9.987778 9.775153 0.770840 0.940393 1.014826 -2.112928 3.148984 1.067125 6.857046 0.122296 -7.932304 -1.031690 -4.824753 6.279212 -30.552507 18.484068 2.415928 -51.580582 25.294186 6.025425 15.098160 -26.971862 1.350272 3.291902 -19.243493 -21.594426 31.714297 0.774769 -1.987513 47.659451 22.332252 16.658763 -33.369084 57.518086 -24.086348 -10.014233 13.369406 -13.794924 
0.559860 0.784508 0.991306 83.817384 -5.985674 83.356028 -1.234118 -10.003412 -22.431976 -6.590936 9.602393 24.746530 7.513495 13.069552 -11.034600 0.000000 -0.000000 0.000000 -7.678269 4.292484 9.625259 4.437434 4.403698 56.083023 12.478365 -4.763661 21.206854 0.000000 -0.000000 0.000000 -7.225105 8.724968 11.113683 0.278357 0.802260 1.468609 -2.036615 2.387986 0.936586 6.569948 1.167820 -8.426539 -0.466244 -3.563190 5.007937 -30.318777 15.067513 3.124765 -55.737498 21.603682 2.101174 17.303334 -27.200176 -1.140812 -0.652960 -20.793606 -19.945302 32.185706 0.488788 -1.476427 50.648730 17.466554 16.673411 -34.174143 57.481740 -26.808065 -8.426251 11.524253 -10.888983 
0.615168 0.788124 1.002823 83.992700 -4.931259 83.008009 -3.195453 -7.399807 -16.867240 -5.909793 6.647277 23.742114 9.235690 13.230812 -14.562507 0.000000 -0.000000 0.000000 -5.530441 4.855713 1.459894 5.087212 2.934148 65.672524 6.813005 -8.431372 9.493541 0.000000 -0.000000 0.000000 -6.371844 5.812738 11.777404 0.283945 1.665408 1.427653 -1.993253 1.787454 1.407556 5.858392 1.997175 -8.376998 -1.021101 -1.255611 5.502755 -31.540547 12.992114 2.092213 -56.896914 17.320104 3.856317 17.607007 -27.788329 -1.729813 1.477800 -20.388741 -21.979623 32.684607 -0.174453 -1.099321 53.217178 12.720350 17.728265 -32.107740 54.878746 -24.436753 -7.736281 10.769407 -11.466128 
0.671538 0.790820 1.019085 85.606409 -3.643605 82.294235 -4.629231 -4.612704 -9.313152 -4.871503 2.252861 19.265263 8.376419 12.269542 -16.344860 0.000000 -0.000000 0.000000 -3.363193 4.844855 -5.401222 2.742094 0.107099 68.628574 5.185782 -7.884434 -0.430730 0.000000 -0.000000 0.000000 -4.984962 3.159466 13.038905 0.147990 1.384120 1.342394 -1.692417 1.049426 0.572498 4.668229 2.634487 -6.289332 -0.813611 -1.080485 5.310293 -31.932914 10.396072 1.553581 -58.374765 12.102379 4.447145 19.015075 -28.894976 -3.278705 -1.293379 -20.283623 -21.108279 33.143527 -1.286163 -0.889142 54.925037 6.905121 15.916595 -26.752738 51.598553 -17.843394 -3.397539 10.340321 -11.826640 
0.726749 0.793780 1.035089 88.355410 -2.275039 81.682135 -4.876837 -3.258366 -1.531409 -4.356722 -2.735233 13.636494 7.019196 11.957016 -17.014112 0.000000 -0.000000 0.000000 -2.085357 5.162660 -11.011417 0.627965 -4.098413 66.372312 6.111503 -6.722761 -5.841692 0.000000 -0.000000 0.000000 -3.753726 0.661936 14.002678 0.479112 0.826443 0.363177 -1.493011 0.038697 0.777059 4.183191 3.935835 -4.240898 -0.895339 -1.817187 5.703475 -31.080614 8.653477 0.839559 -59.564242 4.572186 6.907073 18.751052 -28.963278 -3.701830 -2.219787 -20.991811 -20.187619 32.902103 -3.302998 -0.898406 57.010156 1.893354 15.383604 -23.329642 45.244552 -13.367717 -2.370083 9.433038 -12.966159 
0.783980 0.796055 1.046919 91.037112 -0.567896 80.800385 -3.391783 -1.516665 6.624998 -4.495166 -7.825207 7.964021 6.365014 11.794314 -17.549801 0.000000 -0.000000 0.000000 -0.884563 4.713155 -14.969972 0.566488 -7.463295 59.574454 5.305036 -7.283912 -11.587272 0.000000 -0.000000 0.000000 -2.349309 -2.134866 14.400815 1.093253 0.589671 -0.463282 -1.373677 -0.913764 2.032653 3.612203 4.202123 -2.950961 -0.861501 -1.330932 6.052297 -30.698148 7.780617 0.139195 -58.368728 -2.855725 11.672454 15.782738 -32.424773 -1.348478 4.810680 -19.499829 -23.636602 32.243496 -5.792785 -1.171797 58.417209 -1.758385 16.366660 -21.587172 37.543035 -11.336512 -2.923544 10.488190 -13.492578 
0.840091 0.798571 1.051092 94.143016 0.405819 80.784373 -1.525666 0.307616 13.348502 -4.464050 -10.652990 2.412986 6.171000 9.707565 -18.102288 0.000000 -0.000000 0.000000 -1.190993 4.537117 -19.034139 0.956492 -10.672227 50.328187 5.713511 -8.592380 -13.349632 0.000000 -0.000000 0.000000 -1.977882 -4.681530 14.540714 1.429271 0.137679 -0.676352 -0.616912 -1.840026 1.402540 2.796828 4.295279 -1.283877 0.099288 -1.121748 5.978296 -29.607118 6.123756 0.341999 -58.572905 -9.743384 12.691499 15.946813 -36.433931 -3.945606 3.633060 -20.281584 -24.683103 31.104979 -6.999857 -0.455282 59.227686 -6.506314 15.070010 -20.173818 30.580285 -10.435375 1.342563 9.420758 -12.767188 
